<svg width="23" height="20" viewBox="0 0 23 20" fill="none" xmlns="http://www.w3.org/2000/svg">
<path fill-rule="evenodd" clip-rule="evenodd" d="M1.83643 10C1.83643 5.40002 5.94082 1.66669 11.0093 1.66669C16.087 1.66669 20.2006 5.40002 20.2006 10C20.2006 14.6 16.087 18.3334 11.0093 18.3334C5.94082 18.3334 1.83643 14.6 1.83643 10ZM14.6638 6.66669H17.3725C16.4911 5.29169 15.0862 4.22502 13.3967 3.70002C13.9476 4.62502 14.37 5.62502 14.6638 6.66669ZM11.0185 3.36669C11.7806 4.36669 12.3775 5.47502 12.7723 6.66669H9.26475C9.65958 5.47502 10.2564 4.36669 11.0185 3.36669ZM3.67285 10C3.67285 10.575 3.76467 11.1334 3.91158 11.6667H7.01513C6.94167 11.1167 6.88658 10.5667 6.88658 10C6.88658 9.43335 6.94167 8.88335 7.01513 8.33335H3.91158C3.76467 8.86669 3.67285 9.42502 3.67285 10ZM4.66451 13.3334H7.37323C7.66706 14.375 8.08944 15.375 8.64036 16.3C6.95085 15.775 5.54599 14.7167 4.66451 13.3334ZM4.66451 6.66669H7.37323C7.66706 5.62502 8.08944 4.62502 8.64036 3.70002C6.95085 4.22502 5.54599 5.28335 4.66451 6.66669ZM11.0185 16.6334C10.2564 15.6334 9.65958 14.525 9.26475 13.3334H12.7723C12.3775 14.525 11.7806 15.6334 11.0185 16.6334ZM8.723 10C8.723 10.5667 8.78728 11.1167 8.86992 11.6667H13.1671C13.2498 11.1167 13.3141 10.5667 13.3141 10C13.3141 9.43335 13.2498 8.87502 13.1671 8.33335H8.86992C8.78728 8.87502 8.723 9.43335 8.723 10ZM13.3967 16.3C13.9476 15.375 14.37 14.375 14.6638 13.3334H17.3725C16.4911 14.7084 15.0862 15.775 13.3967 16.3ZM15.1505 10C15.1505 10.5667 15.0954 11.1167 15.0219 11.6667H18.1255C18.2724 11.1334 18.3642 10.575 18.3642 10C18.3642 9.42502 18.2724 8.86669 18.1255 8.33335H15.0219C15.0954 8.88335 15.1505 9.43335 15.1505 10Z" fill="#141416"/>
</svg>
